<!-- Generated by IcoMoon.io -->
<svg version="1.1" xmlns="http://www.w3.org/2000/svg" width="1024" height="1024" viewBox="0 0 1024 1024">
<g id="icomoon-ignore">
</g>
<path fill="#191a23" d="M1024 512c0 282.77-229.23 512-512 512s-512-229.23-512-512c0-282.77 229.23-512 512-512s512 229.23 512 512z"></path>
<path fill="#fff" d="M280.978 616.92c-17.92 10.345-24.059 33.258-13.714 51.178 10.345 17.918 33.258 24.057 51.178 13.712l-37.463-64.889zM768.485 409.305c5.357-19.985-6.504-40.528-26.489-45.883l-325.682-87.267c-19.985-5.355-40.528 6.506-45.883 26.492s6.504 40.528 26.489 45.883l289.495 77.569-77.569 289.495c-5.355 19.985 6.506 40.528 26.492 45.883 19.985 5.357 40.528-6.504 45.883-26.489l87.265-325.682zM318.442 681.809l432.59-249.756-37.463-64.889-432.59 249.756 37.463 64.889z"></path>
</svg>
